<svg width="20" height="20" viewBox="0 0 20 20" fill="none" xmlns="http://www.w3.org/2000/svg">
<path d="M11.0833 14.4167L7.25 10.5833C7.16667 10.5 7.10778 10.4097 7.07334 10.3125C7.03889 10.2153 7.02139 10.1111 7.02084 10C7.02084 9.88889 7.03834 9.78472 7.07334 9.6875C7.10834 9.59028 7.16722 9.5 7.25 9.41667L11.0833 5.58333C11.2361 5.43056 11.4306 5.35417 11.6667 5.35417C11.9028 5.35417 12.0972 5.43056 12.25 5.58333C12.4028 5.73611 12.4792 5.93056 12.4792 6.16667C12.4792 6.40278 12.4028 6.59722 12.25 6.75L9 10L12.25 13.25C12.4028 13.4028 12.4792 13.5972 12.4792 13.8333C12.4792 14.0694 12.4028 14.2639 12.25 14.4167C12.0972 14.5694 11.9028 14.6458 11.6667 14.6458C11.4306 14.6458 11.2361 14.5694 11.0833 14.4167Z" fill="black"/>
</svg>
