<svg width="20" height="20" viewBox="0 0 20 20" fill="none" xmlns="http://www.w3.org/2000/svg">
<path d="M10 12.4792C9.88889 12.4792 9.78112 12.4583 9.67667 12.4167C9.57223 12.375 9.48556 12.3194 9.41667 12.25L5.58334 8.41667C5.43056 8.26389 5.35417 8.06944 5.35417 7.83333C5.35417 7.59722 5.43056 7.40278 5.58334 7.25C5.73612 7.09722 5.93056 7.02083 6.16667 7.02083C6.40278 7.02083 6.59723 7.09722 6.75001 7.25L10 10.5L13.25 7.25C13.4028 7.09722 13.5972 7.02083 13.8333 7.02083C14.0694 7.02083 14.2639 7.09722 14.4167 7.25C14.5694 7.40278 14.6458 7.59722 14.6458 7.83333C14.6458 8.06944 14.5694 8.26389 14.4167 8.41667L10.5833 12.25C10.5 12.3333 10.4097 12.3925 10.3125 12.4275C10.2153 12.4625 10.1111 12.4797 10 12.4792Z" fill="#1C1D1F"/>
</svg>
