<svg width="20" height="20" viewBox="0 0 20 20" fill="none" xmlns="http://www.w3.org/2000/svg">
<path d="M5.58332 12.25C5.43055 12.0972 5.35416 11.9028 5.35416 11.6667C5.35416 11.4306 5.43055 11.2361 5.58332 11.0833L9.41666 7.25C9.49999 7.16667 9.59027 7.10778 9.68749 7.07333C9.78471 7.03889 9.88888 7.02139 9.99999 7.02083C10.1111 7.02083 10.2189 7.04167 10.3233 7.08333C10.4278 7.125 10.5144 7.18055 10.5833 7.25L14.4167 11.0833C14.5694 11.2361 14.6458 11.4306 14.6458 11.6667C14.6458 11.9028 14.5694 12.0972 14.4167 12.25C14.2639 12.4028 14.0694 12.4792 13.8333 12.4792C13.5972 12.4792 13.4028 12.4028 13.25 12.25L9.99999 9L6.74999 12.25C6.59721 12.4028 6.40277 12.4792 6.16666 12.4792C5.93055 12.4792 5.7361 12.4028 5.58332 12.25Z" fill="#1C1D1F"/>
</svg>
