<svg width="20" height="20" viewBox="0 0 20 20" fill="none" xmlns="http://www.w3.org/2000/svg">
<path d="M7.25 14.4167C7.09722 14.2639 7.02084 14.0694 7.02084 13.8333C7.02084 13.5972 7.09722 13.4028 7.25 13.25L10.5 10L7.25 6.75C7.09722 6.59722 7.02084 6.40278 7.02084 6.16667C7.02084 5.93056 7.09722 5.73611 7.25 5.58333C7.40278 5.43056 7.59722 5.35417 7.83334 5.35417C8.06945 5.35417 8.26389 5.43056 8.41667 5.58333L12.25 9.41667C12.3333 9.5 12.3925 9.59028 12.4275 9.6875C12.4625 9.78472 12.4797 9.88889 12.4792 10C12.4792 10.1111 12.4617 10.2153 12.4267 10.3125C12.3917 10.4097 12.3328 10.5 12.25 10.5833L8.41667 14.4167C8.26389 14.5694 8.06945 14.6458 7.83334 14.6458C7.59722 14.6458 7.40278 14.5694 7.25 14.4167Z" fill="black"/>
</svg>
