<svg width="20" height="20" viewBox="0 0 20 20" fill="none" xmlns="http://www.w3.org/2000/svg">
<path d="M3.33334 9.16667C3.09723 9.16667 2.89917 9.08667 2.73917 8.92667C2.57917 8.76667 2.49945 8.56889 2.5 8.33333V3.33333C2.5 3.09722 2.58 2.89917 2.74 2.73917C2.9 2.57917 3.09778 2.49944 3.33334 2.5H8.33334C8.56945 2.5 8.7675 2.58 8.9275 2.74C9.0875 2.9 9.16723 3.09778 9.16667 3.33333V8.33333C9.16667 8.56944 9.08667 8.7675 8.92667 8.9275C8.76667 9.0875 8.56889 9.16722 8.33334 9.16667H3.33334ZM11.6667 9.16667C11.4306 9.16667 11.2325 9.08667 11.0725 8.92667C10.9125 8.76667 10.8328 8.56889 10.8333 8.33333V3.33333C10.8333 3.09722 10.9133 2.89917 11.0733 2.73917C11.2333 2.57917 11.4311 2.49944 11.6667 2.5H16.6667C16.9028 2.5 17.1008 2.58 17.2608 2.74C17.4208 2.9 17.5006 3.09778 17.5 3.33333V8.33333C17.5 8.56944 17.42 8.7675 17.26 8.9275C17.1 9.0875 16.9022 9.16722 16.6667 9.16667H11.6667ZM3.33334 17.5C3.09723 17.5 2.89917 17.42 2.73917 17.26C2.57917 17.1 2.49945 16.9022 2.5 16.6667V11.6667C2.5 11.4306 2.58 11.2325 2.74 11.0725C2.9 10.9125 3.09778 10.8328 3.33334 10.8333H8.33334C8.56945 10.8333 8.7675 10.9133 8.9275 11.0733C9.0875 11.2333 9.16723 11.4311 9.16667 11.6667V16.6667C9.16667 16.9028 9.08667 17.1008 8.92667 17.2608C8.76667 17.4208 8.56889 17.5006 8.33334 17.5H3.33334ZM14.1667 17.5C13.9306 17.5 13.7325 17.42 13.5725 17.26C13.4125 17.1 13.3328 16.9022 13.3333 16.6667V15H11.6458C11.4097 15 11.2153 14.92 11.0625 14.76C10.9097 14.6 10.8333 14.4022 10.8333 14.1667C10.8333 13.9306 10.9133 13.7325 11.0733 13.5725C11.2333 13.4125 11.4311 13.3328 11.6667 13.3333H13.3333V11.6458C13.3333 11.4097 13.4133 11.2153 13.5733 11.0625C13.7333 10.9097 13.9311 10.8333 14.1667 10.8333C14.4028 10.8333 14.6008 10.9133 14.7608 11.0733C14.9208 11.2333 15.0006 11.4311 15 11.6667V13.3333H16.6875C16.9236 13.3333 17.1181 13.4133 17.2708 13.5733C17.4236 13.7333 17.5 13.9311 17.5 14.1667C17.5 14.4028 17.42 14.6008 17.26 14.7608C17.1 14.9208 16.9022 15.0006 16.6667 15H15V16.6875C15 16.9236 14.92 17.1181 14.76 17.2708C14.6 17.4236 14.4022 17.5 14.1667 17.5Z" fill="#1C1D1F"/>
</svg>
