<svg width="17" height="16" viewBox="0 0 17 16" fill="none" xmlns="http://www.w3.org/2000/svg">
<path d="M4.77331 8C4.77331 8.35362 4.63283 8.69276 4.38279 8.94281C4.13274 9.19286 3.7936 9.33333 3.43998 9.33333C3.08636 9.33333 2.74722 9.19286 2.49717 8.94281C2.24712 8.69276 2.10664 8.35362 2.10664 8C2.10664 7.64638 2.24712 7.30724 2.49717 7.05719C2.74722 6.80714 3.08636 6.66667 3.43998 6.66667C3.7936 6.66667 4.13274 6.80714 4.38279 7.05719C4.63283 7.30724 4.77331 7.64638 4.77331 8ZM9.43998 8C9.43998 8.35362 9.2995 8.69276 9.04945 8.94281C8.7994 9.19286 8.46027 9.33333 8.10664 9.33333C7.75302 9.33333 7.41388 9.19286 7.16384 8.94281C6.91379 8.69276 6.77331 8.35362 6.77331 8C6.77331 7.64638 6.91379 7.30724 7.16384 7.05719C7.41388 6.80714 7.75302 6.66667 8.10664 6.66667C8.46027 6.66667 8.7994 6.80714 9.04945 7.05719C9.2995 7.30724 9.43998 7.64638 9.43998 8ZM14.1066 8C14.1066 8.35362 13.9662 8.69276 13.7161 8.94281C13.4661 9.19286 13.1269 9.33333 12.7733 9.33333C12.4197 9.33333 12.0806 9.19286 11.8305 8.94281C11.5805 8.69276 11.44 8.35362 11.44 8C11.44 7.64638 11.5805 7.30724 11.8305 7.05719C12.0806 6.80714 12.4197 6.66667 12.7733 6.66667C13.1269 6.66667 13.4661 6.80714 13.7161 7.05719C13.9662 7.30724 14.1066 7.64638 14.1066 8Z" fill="#505F79"/>
</svg>
