<svg width="20" height="20" viewBox="0 0 20 20" fill="none" xmlns="http://www.w3.org/2000/svg">
<path d="M3.73001 10.7812V10.785C3.70896 10.8644 3.67246 10.9389 3.62261 11.0041C3.57276 11.0694 3.51053 11.1242 3.43949 11.1654C3.36844 11.2067 3.28996 11.2335 3.20855 11.2443C3.12713 11.2552 3.04438 11.2499 2.96501 11.2287C2.42626 11.0862 2.52126 10.465 2.52126 10.465L2.54376 10.3875C2.54376 10.3875 2.57626 10.2825 2.60251 10.2062C2.92328 9.30686 3.39551 8.46895 3.99876 7.72875C5.12001 6.36125 7.00626 5 10 5C12.9938 5 14.88 6.36125 16.0025 7.72875C16.6058 8.46895 17.078 9.30686 17.3988 10.2062C17.4256 10.2836 17.4506 10.3615 17.4738 10.44L17.4775 10.4562V10.4613L17.4788 10.4638C17.5184 10.6228 17.494 10.7911 17.4107 10.9324C17.3274 11.0736 17.192 11.1764 17.0336 11.2187C16.8752 11.261 16.7065 11.2394 16.5639 11.1585C16.4213 11.0776 16.3162 10.9439 16.2713 10.7862L16.27 10.7812L16.26 10.75C16.1891 10.5287 16.1057 10.3117 16.01 10.1C15.7553 9.53347 15.4275 9.00272 15.035 8.52125C14.1075 7.39 12.555 6.25 10 6.25C7.44501 6.25 5.89376 7.39 4.96501 8.52125C4.45563 9.14685 4.05621 9.85441 3.78376 10.6138C3.76831 10.6589 3.75373 10.7043 3.74001 10.75L3.73001 10.7812V10.7812ZM6.87501 11.875C6.87501 11.0462 7.20425 10.2513 7.7903 9.66529C8.37635 9.07924 9.17121 8.75 10 8.75C10.8288 8.75 11.6237 9.07924 12.2097 9.66529C12.7958 10.2513 13.125 11.0462 13.125 11.875C13.125 12.7038 12.7958 13.4987 12.2097 14.0847C11.6237 14.6708 10.8288 15 10 15C9.17121 15 8.37635 14.6708 7.7903 14.0847C7.20425 13.4987 6.87501 12.7038 6.87501 11.875Z" fill="#252C32"/>
</svg>
