<svg width="20" height="20" viewBox="0 0 20 20" fill="none" xmlns="http://www.w3.org/2000/svg">
<path d="M12.65 13.5337L17.6825 18.5675C17.7406 18.6256 17.8096 18.6717 17.8855 18.7032C17.9614 18.7346 18.0428 18.7508 18.125 18.7508C18.2072 18.7508 18.2886 18.7346 18.3645 18.7032C18.4404 18.6717 18.5094 18.6256 18.5675 18.5675C18.6256 18.5094 18.6717 18.4404 18.7032 18.3645C18.7346 18.2886 18.7508 18.2072 18.7508 18.125C18.7508 18.0428 18.7346 17.9614 18.7032 17.8855C18.6717 17.8096 18.6256 17.7406 18.5675 17.6825L2.3175 1.4325C2.25939 1.37439 2.1904 1.32829 2.11448 1.29684C2.03855 1.26539 1.95718 1.24921 1.875 1.24921C1.79282 1.24921 1.71144 1.26539 1.63552 1.29684C1.55959 1.32829 1.49061 1.37439 1.4325 1.4325C1.37439 1.49061 1.32829 1.55959 1.29684 1.63552C1.26539 1.71144 1.24921 1.79282 1.24921 1.875C1.24921 1.95718 1.26539 2.03855 1.29684 2.11448C1.32829 2.1904 1.37439 2.25939 1.4325 2.3175L5.47 6.355C4.92048 6.74427 4.42601 7.20594 4 7.7275C3.39675 8.4677 2.92452 9.30561 2.60375 10.205C2.5775 10.2812 2.545 10.3862 2.545 10.3862L2.5225 10.4637C2.5225 10.4637 2.4275 11.085 2.96625 11.2275C3.12637 11.2698 3.29674 11.2469 3.43994 11.1637C3.58314 11.0805 3.68747 10.9438 3.73 10.7837L3.73125 10.78L3.74125 10.7487L3.785 10.6125C4.05744 9.85315 4.45687 9.14559 4.96625 8.52C5.36668 8.02782 5.84058 7.60031 6.37125 7.2525L8.34375 9.225C7.9457 9.47448 7.60902 9.81049 7.35875 10.208C7.10849 10.6056 6.95107 11.0545 6.89821 11.5212C6.84534 11.988 6.8984 12.4607 7.05343 12.9042C7.20846 13.3476 7.46147 13.7504 7.79365 14.0826C8.12583 14.4148 8.52862 14.6678 8.97207 14.8228C9.41552 14.9778 9.88822 15.0309 10.355 14.978C10.8218 14.9252 11.2706 14.7678 11.6682 14.5175C12.0658 14.2672 12.4018 13.9305 12.6512 13.5325L12.65 13.5337ZM7.9 5.24875L8.9675 6.31625C9.30986 6.27177 9.65476 6.24964 10 6.25C12.555 6.25 14.1075 7.39 15.035 8.52125C15.5445 9.14677 15.9439 9.85435 16.2162 10.6137C16.2375 10.6737 16.2512 10.72 16.26 10.75L16.27 10.7812V10.785L16.2712 10.7862C16.3175 10.9422 16.4228 11.0741 16.5647 11.1537C16.7066 11.2333 16.8739 11.2544 17.0312 11.2126C17.1884 11.1708 17.3231 11.0692 17.4067 10.9296C17.4903 10.79 17.5161 10.6234 17.4787 10.465V10.4612L17.4775 10.4562L17.4725 10.44C17.4508 10.361 17.4258 10.2831 17.3975 10.2062C17.0767 9.30686 16.6045 8.46894 16.0012 7.72875C14.8812 6.36 12.995 5 10.0025 5C9.23 5 8.53125 5.09 7.90125 5.24875H7.9Z" fill="#252C32"/>
</svg>
