<svg width="4" height="3" viewBox="0 0 4 3" fill="none" xmlns="http://www.w3.org/2000/svg">
<path d="M0.706667 0.0966651L2 1.39L3.29333 0.0966651C3.3242 0.0658044 3.36083 0.0413246 3.40115 0.0246229C3.44147 0.00792126 3.48469 -0.000675201 3.52833 -0.000675201C3.57198 -0.000675202 3.61519 0.00792126 3.65552 0.0246229C3.69584 0.0413246 3.73247 0.0658044 3.76333 0.0966651C3.7942 0.127526 3.81867 0.164163 3.83538 0.204484C3.85208 0.244805 3.86067 0.288022 3.86067 0.331665C3.86067 0.375309 3.85208 0.418525 3.83538 0.458846C3.81867 0.499167 3.7942 0.535804 3.76333 0.566665L2.23333 2.09667C2.2025 2.12757 2.16587 2.15208 2.12554 2.16881C2.08522 2.18554 2.04199 2.19415 1.99833 2.19415C1.95468 2.19415 1.91145 2.18554 1.87113 2.16881C1.8308 2.15208 1.79417 2.12757 1.76333 2.09667L0.233334 0.566665C0.202433 0.535827 0.177917 0.499198 0.16119 0.458873C0.144463 0.418549 0.135853 0.375321 0.135853 0.331665C0.135853 0.288009 0.144463 0.244781 0.16119 0.204457C0.177917 0.164133 0.202433 0.127503 0.233334 0.0966651C0.363334 -0.0300016 0.576667 -0.0333349 0.706667 0.0966651Z" fill="#42526E"/>
</svg>
